<?xml version="1.0" encoding="utf-8"?>
<!-- Generator: Adobe Illustrator 16.0.0, SVG Export Plug-In . SVG Version: 6.00 Build 0)  -->
<!DOCTYPE svg PUBLIC "-//W3C//DTD SVG 1.1//EN" "http://www.w3.org/Graphics/SVG/1.1/DTD/svg11.dtd">
<svg version="1.1" id="Layer_1" xmlns="http://www.w3.org/2000/svg" xmlns:xlink="http://www.w3.org/1999/xlink" x="0px" y="0px"
	 width="1080px" height="792px" viewBox="0 0 1080 792" enable-background="new 0 0 1080 792" xml:space="preserve">
<g>
	<path fill="#C9A063" d="M393.056,459.188c-7.987-2.119-8.428,0.424-9.32-3.809c-0.887-4.239-6.214-4.239-11.093-4.239
		c-4.886,0-6.656-0.418-10.649-3.807c-3.995-3.382-12.436-3.812-15.098-4.659c-2.665-0.842-1.332-8.045-6.654-14.816
		c-5.331-6.772-16.421-8.043-23.525-11.854c-7.104-3.811-4.881-18.629-15.094-17.357c-10.209,1.268-11.098,5.082-20.417,0.424
		c-9.321-4.659-15.53-7.621-20.416-4.235c-4.884,3.385-11.098,9.735-14.204,11.432c-3.108,1.693-8.439-1.271-11.545-0.846
		c-3.102,0.421-6.658-2.968-8.87-5.926c-2.225-2.971,3.993-17.789-1.778-17.789c-5.772,0-13.319-2.54-13.319-4.658
		c0-2.114,11.981-14.814,8.438-16.932c-3.552-2.119-10.652-0.844-16.867,7.196c-6.218,8.046-11.989,7.622-15.096,4.658
		c-3.103-2.962-10.208-20.32-4.436-30.055c5.769-9.743,13.398-15.483,20.503-15.058c7.1,0.424,9.945-1.673,17.045-2.094
		c7.101-0.425,13.939,2.752,15.717,5.294c1.769,2.54-1.778,6.774,2.661,11.857c4.439,5.075,7.104,2.961,7.547,5.075
		c0.445,2.121-3.553,4.236-5.328,4.236c-1.773,0-16.425,3.812-10.652,6.351c5.772,2.539,15.98,0.42,18.198,3.81
		c2.22,3.387-7.1,10.584,6.214,11.009c13.318,0.42,22.189,2.12,29.738,2.539c7.546,0.424,12.873,0.849,13.759,2.539
		c0.888,1.693,6.209-6.347-6.213-6.347c-12.431,0-22.193-6.778-28.852-8.047c-6.656-1.27-11.099-5.502-11.544-10.585
		c-0.438-5.081,0.445-8.886-2.216-13.123c-2.66-4.234-9.32-14.395-3.105-18.628c6.213-4.231,18.644-12.279,21.75-17.781
		c3.103-5.503,3.103-6.772,10.203-11.012c7.109-4.232,15.538-9.735,19.532-13.547c3.994-3.81,10.652-9.736,11.981-6.771
		c1.333,2.961,7.55,3.812,15.097,1.268c7.551-2.539,16.866-8.886,8.879-8.886c-7.992,0-12.873-2.118-10.652-5.082
		c2.215-2.964-5.326-4.233-7.546-3.808c-2.22,0.42-2.22-4.234,5.325-5.509c7.547-1.269,1.453,6.447,7.67,6.021
		c6.21-0.424,10.08-6.44,14.527-7.29c4.435-0.849,6.205,2.965,0.437,6.778c-5.768,3.808-7.546,2.537,0,4.232
		c7.546,1.694,9.761,5.501,14.208,1.694c4.432-3.813-0.891-5.082-1.332-10.161c-0.45-5.083,3.178-15.194-1.698-18.584
		c-4.881-3.383-7.182-6.82-7.182-10.207c0-3.389,0.887-10.586-3.998-7.199c-4.885,3.385-8.879,5.503-10.649,3.81
		c-1.778-1.696,0.888-5.083-3.11-7.618c-3.994-2.542-4.439-6.351-9.321-5.931c-4.88,0.424-9.764-3.384-12.426,2.12
		c-2.666,5.501-5.328,10.161-6.218,11.854c-0.888,1.694,3.115,7.622-0.443,10.586c-3.551,2.963-13.313,7.196-14.646,10.16
		c-1.328,2.961-6.654,10.584-7.987,5.501c-1.333-5.078,4.435-12.698-3.552-14.818c-7.992-2.118-14.205-0.418-15.538-5.078
		c-1.332-4.657-4.88-8.89,3.107-12.704c7.995-3.812,15.982-10.584,23.525-11.43c7.546-0.845,2.22,5.083,8.438,4.659
		c6.208-0.425-0.892-3.39,6.653-4.659c7.551-1.268,6.219-1.268,3.995-3.813c-2.22-2.538-0.892-2.958,4.885-5.501
		c5.768-2.539,1.333-4.233,7.101-6.349c5.773-2.118,7.101-4.233,10.212-4.233c3.102,0,2.661,1.271,0.887,5.079
		c-1.779,3.807-3.111,6.347,2.215,3.807c5.326-2.538,7.988-4.229,3.993-0.418c-3.993,3.808-6.654,3.808-12.426,4.657
		c-5.768,0.844-3.99,1.693-1.329,4.654c2.666,2.963,9.321,3.386,11.545,5.082c2.21,1.694,4.876,7.622,10.203,4.654
		c5.321-2.96,1.328-3.385,8.433-6.35c7.101-2.964,17.316-4.657,16.42-8.465c-0.882-3.814-7.988-5.928-8.878-10.585
		c-0.88-4.657,9.774-7.196-3.994-9.312c-13.755-2.118-5.768-3.813-12.423-3.813c-6.66,0-19.085,0-23.525,2.114
		c-4.435,2.121-7.101-1.264-9.324,2.121c-2.22,3.386,0.44,8.046-1.771,8.046c-2.224,0-6.219,3.386-7.992,0
		c-1.778-3.388-5.772-6.772-0.445-8.046c5.321-1.271,6.213-0.422,7.104-4.234c0.883-3.808-7.545-3.383-2.661-4.233
		c4.876-0.843,7.098,0.426,13.755,0.426c6.655,0,21.748,2.532,23.967-1.269c2.22-3.814-3.548-3.814-10.208-4.239
		c-6.658-0.419-18.194-2.54-23.079-0.419c-4.886,2.111-11.099,5.501-13.314,8.89c-2.225,3.383-2.225-0.849-6.659,0
		c-4.439,0.845-11.982,5.503-7.988,8.041c3.995,2.538,3.995,5.502-0.45,5.502c-4.435,0-5.769,4.239-8.871,4.239
		c-3.115,0-11.545-0.425-7.55-2.543c3.994-2.114,8.433-2.114,7.988-7.198c-0.438-5.083,4.436-6.772,4.436-8.472
		c0-1.688-10.645,3.813-19.079,1.275c-8.437-2.54-11.984-6.352-20.417-5.927c-8.434,0.424-19.531,11.008-14.205,11.854
		c5.331,0.843,9.324-0.846,10.211,1.693c0.883,2.54-0.887,4.66,2.216,5.929c3.11,1.268,8.878,4.652,1.332,2.963
		c-7.55-1.695-3.993-4.66-15.537-5.082c-11.536-0.422-18.641-3.811-30.623-0.846c-11.984,2.965-10.211,5.503-18.202,2.965
		c-7.987-2.541-27.294-12.096-40.608-9.557c-13.314,2.54-27.295,10.401-31.292,12.945c-3.998,2.539-6.174-3.9-13.284-3.479
		c-7.1,0.425-24.149-2.068-20.598,2.169c3.548,4.234,7.991,4.658,2.666,5.501c-5.327,0.846-12.435,1.275-15.091,5.083
		c-2.671,3.809-12.432,5.924-6.219,7.623c6.219,1.688,16.422,5.502,11.991,5.926c-4.448,0.42-27.082,8.892-36.844,11.004
		c-9.77,2.12-9.278,26.155-0.84,23.191c10.708-3.762,31.02-26.153,36.351-28.272c5.327-2.115,7.538-0.419,7.097,2.545
		c-0.442,2.963,6.218-1.275,11.544-5.083c5.327-3.809,6.766-12.822,11.2-10.278c4.443,2.536,5.67,1.39,9.219,0.541
		c3.547-0.847,21.037,5.092,24.144,6.782c3.102,1.699,7.513,6.377,9.733,8.074c2.22,1.693,3.106,5.502,0.891,5.928
		c-2.223,0.423-2.666,2.537-2.223,5.925c0.45,3.39,2.223,6.354-2.221,7.197c-4.439,0.846-3.548,5.928-0.882,5.504
		c2.66-0.422,4.435-1.69,4.881-4.234c0.445-2.539,6.208-7.196,5.327-3.809c-0.888,3.384-3.111,6.771-3.111,9.317
		c0,2.538-3.103,2.114-3.543,4.656c-0.45,2.539,0.44,2.539,2.655,4.653c2.22,2.119,0.888,3.388,0.447,8.047
		c-0.447,4.658-13.759,17.357-15.534,21.59c-1.774,4.232-0.887,10.16-0.887,14.817c0,4.659-1.778,10.585,3.107,12.279
		c4.881,1.693,5.326,2.539,5.326,6.772c0,4.232,0,9.316,2.661,12.279c2.665,2.964,1.332,2.538,1.332,7.198
		c0,4.657,3.103,2.118,3.548,5.926c0.447,3.808-2.215,5.503,2.22,8.468c4.44,2.962,9.321,5.082,7.109,0.424
		c-2.224-4.66-3.556-8.472-5.776-15.243c-2.219-6.774-3.553-19.053-0.886-15.24c2.662,3.809,6.217,15.24,10.206,23.286
		c3.994,8.04,8.879,7.197,8.879,13.123c0,5.929-4.885,11.431,4.884,15.239c9.763,3.813,16.862,11.854,22.635,11.011
		c5.768-0.85,9.321-4.234,11.545-0.426c2.214,3.812,7.096,8.89,12.422,8.89s7.104,3.39,7.988,8.472
		c0.892,5.079,4.44,5.922,9.766,7.621c5.335,1.689,6.663,7.197,10.658,6.77c3.988-0.422,9.319-2.115,9.319,1.696
		c0,3.81,1.775,13.125-4.885,19.053c-6.654,5.929-9.757,10.161-6.209,13.968c3.548,3.809,0.444,7.623-1.337,10.586
		c-1.774,2.965,1.337,5.504,4.885,10.16c3.553,4.658,8.433,10.16,11.543,19.477c3.104,9.314,7.543,12.703,15.085,15.664
		c7.549,2.963,13.314,8.047,13.314,15.24c0,7.203-0.438,31.752-0.438,38.947c0,7.199,3.993,14.4,2.662,19.903
		c-1.333,5.503,0,10.159,1.773,12.274c1.778,2.118,1.333,6.778,1.778,11.436c0.441,4.658,5.767,1.268,5.767,5.501
		c0,4.234-2.211,10.585,0.445,12.7c2.662,2.117-3.106,9.736,8.876,16.938c11.984,7.195,12.873,7.62,13.763,8.892
		c0.883,1.268,4.877-2.546,4.877-0.431c0,2.123-6.656,14.574,5.775,14.574c12.428,0,19.974-4.404,12.428-9.915
		c-7.547-5.5-11.985-2.961-13.319-8.462c-1.329-5.504-3.102-4.658-3.995-8.471c-0.89-3.811,3.111-5.504,1.78-9.313
		c-1.333-3.813-7.73-4.206-7.281-8.015c0.441-3.809,4.611-7.228,5.501-8.923c0.893-1.693,0.893-3.389-1.332-5.076
		c-2.22-1.7-1.77-2.121,1.332-2.97c3.111-0.845,3.557,0.424,4.885-3.808c1.329-4.229,5.327-3.809,7.101-5.084
		c1.774-1.264,7.987-2.959,5.772-8.46c-2.221-5.503-8.131-8.685-3.25-8.685c4.884,0,11.238,0.213,14.345-5.715
		c3.102-5.922,1.773-7.197,5.326-11.85c3.549-4.658,1.94-8.695,1.94-12.079c0-3.394,0.28-6.554,5.156-8.672
		c4.885-2.114,20.868-4.657,23.088-11.005c2.215-6.346,4.436-13.124,3.548-19.899c-0.887-6.774-1.333-11.007,3.556-16.509
		c4.876-5.503,11.095-10.159,11.095-15.242C398.832,468.503,401.047,461.301,393.056,459.188z"/>
	<path fill="#C9A063" d="M476.082,172.636c4.881-5.077,3.549-7.622,10.208-10.161c6.658-2.542,4.879-5.926,3.993-11.01
		c-0.888-5.083,2.709-3.027,5.374-4.722c2.663-1.693,3.947-2.897,10.16-3.317c6.218-0.426,0.45-2.54,0.45-5.083
		c0-2.54-4.439-2.114-10.657-1.268c-6.215,0.848-5.327,0-9.766-1.696c-4.436-1.693-30.626-1.693-37.281-1.693
		c-6.659,0-18.645,1.269-24.857,1.693c-6.218,0.425-5.773,0-17.754-1.268c-11.989-1.271-43.498-0.425-55.038,0.844
		c-11.54,1.275-18.128-1.921-25.675,2.737c-7.546,4.652-11.043,2.608-19.471,3.458c-8.433,0.844-14.271-1.238-18.264-1.238
		c-3.995,0-3.553-2.115-10.654,0.424c-7.102,2.54-4.885,4.233-7.547,0.85c-2.665-3.39-6.217,0-18.64,2.964
		c-12.431,2.958,6.149,13.25,10.142,14.518c0,0,8.438-0.423,13.319-1.692c4.88-1.275,7.104,1.692,10.207,0.843
		c3.106-0.843,3.994-3.814,21.755-7.622c17.749-3.814,30.176-0.844,37.281,2.121c7.096,2.958,7.096,1.269,13.313-2.545
		c6.219-3.808,16.867-6.772,27.961-8.466c11.103-1.695,4.002,2.119-3.102,4.658c-7.104,2.539-13.314,1.693-11.981,5.926
		c1.328,4.234,15.083,2.963,19.085,2.963c3.985,0,4.44,5.923,4.877,9.311c0.441,3.395-0.437,5.083,0.441,8.472
		c0.892,3.383,3.115,2.963-0.878,6.353c-3.998,3.387-6.219,2.958-6.219,8.89c0,5.925,2.661,12.276,8.879,16.507
		c6.209,4.233,9.762,4.66,13.314-2.113c3.547-6.772,11.981-11.012,16.425-13.13c4.434-2.113,10.644,0,16.42-5.078
		c5.768-5.076,13.314-2.962,21.747-5.501C472.088,176.019,471.196,177.719,476.082,172.636z"/>
	<path fill="#C9A063" d="M483.911,196.679c-13.318,1.689-25.746-2.542-23.522,4.229c2.217,6.778,3.207,19.639,10.303,17.518
		c12.195-3.636,23.165-8.119,20.049-13.627C487.64,199.294,497.229,194.981,483.911,196.679z"/>
	<path fill="#C9A063" d="M569.713,164.16c0.475,0.128,0.949,0.173,1.354,0.319c4.436,1.694,7.545-0.845,7.992-4.233
		c4.879-6.771,3.102,5.503,8.433,3.389c5.322-2.114,12.869-7.197,19.085-10.16c6.214-2.964-7.545-1.695-18.64-3.39
		c-11.103-1.688-26.632,1.274-31.075,4.234C552.729,157.083,563.229,162.413,569.713,164.16z"/>
	<path fill="#C9A063" d="M635.368,146.629c0,0-2.22,2.965,3.106,2.965c5.327,0,16.42-3.39,25.3-3.39
		c8.879,0,6.217-2.962,4.435-2.962c-1.773,0-6.659-4.653-13.756-4.232c-7.104,0.423-6.658,3.383-11.098,3.383
		s-3.549-1.27-12.869-0.846C621.167,141.972,630.486,145.781,635.368,146.629z"/>
	<path fill="#C9A063" d="M1052.985,170.86c-0.893-5.077-0.337-14.153-15.322-13.351c-26.604,1.422-33.336-0.744-38.22-0.744
		c-4.885,0-2.386-3.265,1.16-3.265c3.562,0,3.447-3.725-0.098-5.43c-3.562-1.685-8.508-0.397-9.835,3.408
		c-1.337,3.813,5.06,4.992-5.159,4.992c-10.212,0-24.06,14.242-36.046,12.124c-11.976-2.117-15.625-9.748-25.833-10.169
		c-10.208-0.42-18.749,9.378-29.399,9.378c-10.661,0-7.105-3.813-11.547-8.47c-4.441-4.659-6.651-3.383-19.975-3.383
		c-13.313,0-6.211,5.08-3.55,5.922c2.664,0.841,9.757,2.959,14.655,7.206c4.884,4.223-8.884,2.539-14.655,2.959
		c-5.765,0.421-5.322-2.959-11.974-6.773c-6.674-3.814-23.081-1.696-32.419-2.118c-9.314-0.433-9.756,0-13.303-6.355
		c-3.559-6.352-11.104-2.958-20.859-2.958c-9.769,0-15.093-4.656-19.977-7.628c-4.885-2.96-12.432-3.393-23.094-5.077
		c-10.65-1.696-4.871,6.352-0.872,6.773c0,0,4.431,1.687,8.875,2.107c4.441,0.43,13.763,0.851,18.636,6.362
		c4.885,5.501-15.093,3.392-23.965,8.048c-8.882,4.658-15.976,2.541-22.185,5.067c-6.223,2.551,3.104,6.786,5.313,12.283
		c2.221,5.51,0,5.51-3.999,6.773c-3.988,1.275,1.335-5.919-0.444-8.036c-1.766-2.118-8.429-13.126-13.757-16.518
		c-5.322-3.384-4.44,2.971-3.544,7.627c0.886,4.655,2.221,4.655,3.544,8.036c1.341,3.393-5.765,0-9.323-2.538
		c-3.546-2.539-15.093,3.393-20.408,0.842c-5.335-2.538,1.771-1.684,1.771-4.235c0-2.526-6.212-0.42-7.991-4.234
		c-1.768-3.802,11.104-8.457,19.095-9.724c7.985-1.284,7.09-1.284,7.09-5.089c0-3.813-14.195-2.537-26.185,2.962
		c-11.989,5.51-8.871,9.324-10.649,13.125c-1.769,3.813,3.987,4.234,6.649,6.353c2.676,2.116-3.104,2.958-8.418,4.655
		c-5.337,1.697-6.662,0-12.885,2.117c-6.208,2.117-2.651,4.656-7.986,6.774c-5.327,2.107-4.873,2.107-9.314,3.813
		c-4.431,1.688,0.893-6.353,7.105-7.194c6.209-0.855,4.431-4.234,2.65-5.51c-1.771-1.263-13.313-4.655-25.732-8.049
		c-12.433-3.38-32.407,1.275-39.069,4.235c-6.651,2.971-6.22,5.089-7.094,9.324c-0.895,4.226-15.989,10.586-23.522,14.391
		c-7.548,3.814-0.908,8.891,1.323,12.283c2.223,3.38,7.096,1.684,13.315,0c6.22-1.708,5.326,5.498,6.22,8.036
		c0.886,2.538,4.434,2.972,10.211,0.421c5.768-2.538,4.44-8.457,4.44-11.85c0-3.381-1.335-5.077,2.652-9.745
		c4-4.655,7.548-7.615,11.093-9.723c3.545-2.126,3.118,1.674-2.221,5.92c-5.314,4.236-1.767,5.507,0.896,10.575
		c2.66,5.09,7.987,0,14.649-0.841c6.662-0.843-5.778,5.497-10.661,5.497c-4.885,0,0,5.088-3.106,5.088
		c-3.103,0-3.545,2.118-3.987,7.194c-0.453,5.09-2.222,3.814-5.77,5.09c-3.546,1.265-8.882,1.688-14.659,0.42
		c-5.768-1.272-5.315-6.361-9.315-9.745c-3.998-3.38-4.885,1.696-4.885,3.814c0,2.117-3.986,6.775-5.754,6.775
		c-1.789,0-7.105,5.077-10.222,9.312c-3.104,4.234-5.313,1.696-6.21,0c-0.896-1.697,2.209-4.235,0.444-8.469
		c-1.779-4.226-8.885-7.618-6.664-17.351c2.221-9.745-2.664-4.656-9.756-3.814c-7.117,0.842-9.327,3.814-9.768,6.352
		c-0.442,2.538-4.441,7.615-8.883,12.283c-4.443,4.647-1.326,8.461,0.896,13.537c2.209,5.09,7.988-1.684,9.766-5.918
		c1.77-4.234,3.99-6.355,6.654-4.234c2.66,2.117-3.991,5.918-4.884,11.007c-0.897,5.076,1.767,4.656,7.998,2.959
		c6.209-1.684,3.105-2.959,7.978-0.841c4.885,2.118-4.429,3.813-10.21,4.234c-5.766,0.409-3.545,4.234,1.339,7.615
		c4.88,3.392,2.66,8.469-0.454,8.891c-3.095,0.424-8.872,1.265-17.745,2.961c-8.883,1.697-0.896,8.47-2.664,12.271
		c-1.778,3.813-2.221,12.283,1.768,12.703c4,0.434,4,6.777,1.778,8.895c-2.221,2.126-2.664,4.233-7.987,8.048
		c-5.326,3.813-1.339,7.193-3.105,12.27c-1.779,5.089-6.221,2.13-11.548,7.628c-5.312,5.509-7.543,9.745-11.535,16.087
		c-4,6.352-4.442,6.774,0.454,14.4c4.873,7.616,0,9.733-3.999,16.506c-3.999,6.776,1.324,7.198,3.103,13.129
		c1.769,5.918,5.326,4.655,6.665,10.587c1.324,5.919,3.091,7.613,9.311,11.848c6.224,4.234,12.433,10.158,15.538,8.895
		c3.104-1.266,7.987-4.66,18.198-4.238c10.208,0.425,6.663-4.234,17.312-5.928c10.65-1.695,1.607,2.42,2.935,5.379
		c1.335,2.959,10.377,4.787,18.369,5.208c7.987,0.421,1.323,9.745,0.882,15.663c-0.443,5.932,0,5.932,4,11.008
		c4.002,5.08,9.326,16.508,10.652,22.439c1.324,5.932-1.326,12.695-4.884,18.205c-3.549,5.498-2.222,18.201,5.327,27.525
		c7.544,9.303,3.102,8.881,3.102,18.626c0,9.731,5.328,8.036,9.327,13.534c3.999,5.521,2.22,15.666,5.769,21.186
		c3.545,5.488,9.765,0.412,16.87-2.127c7.093-2.537,10.211-1.688,18.64-7.627c8.429-5.91,15.093-17.771,15.093-21.164
		c0-3.381,2.663-4.656,7.104-6.34c4.432-1.696,3.549-12.707,3.106-15.667c-0.441-2.972,0.895-5.509,2.664-7.206
		c1.778-1.685,12.87-11.85,16.869-16.085c3.989-4.225,0.431-10.165-0.441-16.929c-0.895-6.773-3.558-9.311-3.558-17.359
		s-2.663-7.207,11.991-20.322c14.637-13.126,28.403-33.869,29.731-38.523c1.335-4.669,0.895-8.471,0-11.863
		c-0.886-3.38-19.979,3.393-24.421,3.393c-4.431,0-15.771-9.021-16.656-12.402c-0.894-3.392-4.205-7.077-9.971-12.155
		c-5.767-5.075-1.325-12.282-5.767-17.78c-4.433-5.501-6.666-13.549-7.546-18.205c-0.886-4.656,6.662,3.381,12.416,9.723
		c5.779,6.364,13.337,18.214,15.55,22.449c2.22,4.235,3.986,10.587,4.44,15.666c0.44,5.077,3.987,5.932,9.322,5.51
		c5.327-0.433,23.967-9.745,30.618-12.716c6.663-2.95,14.648-11.841,17.755-20.311c3.106-8.469-6.65-7.205-11.092-11.44
		c-4.441-4.226-4.441,0-9.769,1.275c-5.323,1.275-9.768-5.501-18.197-13.127c-8.441-7.616-3.103-5.078-1.324-6.774
		c1.767-1.684,10.207,3.814,15.092,9.323c4.884,5.499,5.757,3.381,11.535,3.381c5.768,0,7.104,2.541,14.651,4.659
		c7.546,2.104,11.533-0.846,17.981-0.187c6.46,0.65,5.541,3.575,9.971,10.339c4.44,6.773,2.674,4.668,12.431,5.51
		c9.766,0.854,2.664,0,2.664,5.918c0,5.932,0.882,8.049,6.675,15.247c5.754,7.206,7.974,20.752,9.741,27.523
		c1.781,6.774,5.338,0,11.095,0c5.778,0-1.653,6.441,4.894,11.431c7.547,5.748,7.127-2.483,7.127-5.009
		c0-2.553-2.243-8.537-4.905-10.656c-2.661-2.104-6.221-1.696-3.114-5.075c3.114-3.393-3.616-5.575-3.616-10.229
		c0-4.66,1.757-10.944,3.978-13.062c2.221-2.121,12.963-8.039,17.836-13.549c4.885-5.498,8.884-6.34,15.545-5.931
		c6.651,0.433,1.323,1.276,5.324,6.353c3.993,5.088,4.882,12.283,9.315,17.362c4.441,5.077,4.885-0.845,8.432-2.541
		c3.544-1.693,1.335,5.08,3.999,10.156c2.661,5.077,0.886,11.862,0.886,16.517c0,4.656,5.774,9.313,9.321,13.547
		c3.548,4.234,2.222,6.355,0,8.039c-2.221,1.697-6.66-4.227-10.207-7.614c-3.547-3.384-8.872-1.267-5.328,2.548
		c3.55,3.805,5.771,10.577,9.757,17.771c4,7.194,12.442,15.667,18.209,23.282c5.767,7.627,24.407,11.007,31.513,11.007
		c7.094,0,21.304,5.944,28.418,6.786c7.091,0.842,12.417,0,17.293-2.539c4.894-2.55,2.675-5.51,2.232-6.784
		c-0.443-1.264-3.999,1.274-8.884,2.13c-4.885,0.841-6.209,0.841-12.432,1.262c-6.198,0.422-2.223-2.117-8.873-2.538
		c-6.651-0.433-13.313-1.696-20.861-4.235c-7.544-2.537-11.543-4.655-16.858-6.351c-5.339-1.696-0.454-4.657-0.897-11.853
		c-0.442-7.194-5.323-4.236-9.326-6.783c-3.984-2.529-2.649-8.039-0.881-6.343c1.778,1.697,2.221,3.813,2.221-5.089
		c0-8.883-8.431-14.813-13.757-22.439c-5.336-7.615-4.45-11.851-3.999-15.663c0.44-3.802,9.766,3.392,14.649,8.902
		c4.873,5.497,4.873,5.497,7.548,4.235c2.664-1.277,10.65-5.511,12.418-12.284c1.792-6.772-14.196-20.322-16.417-26.675
		c-2.221-6.352,3.103-2.538,5.769-6.772c2.673-4.234,5.775,1.697,3.997,4.656c-1.778,2.972,0.445,4.656,2.221,7.627
		c1.771,2.96,1.771,0,3.549-3.814c1.778-3.813,0.441-5.077,3.557-7.614c3.107-2.551,15.086-5.931,18.198-8.903
		c3.105-2.96,5.326-6.352,9.313-16.93c3.989-10.586-0.442-10.154-2.22-13.968c-1.768-3.813-7.094-10.165-10.206-13.978
		c-3.11-3.804-0.444-2.963,1.775-4.226c2.221-1.275,0.442-4.234-4.886-5.939c-5.324-1.689-4.427,1.705-9.313,0.85
		c-4.896-0.85-2.222-4.234,3.105-10.166c5.322-5.919,2.661,1.275,6.207,3.814c3.548,2.549,4.433-2.118,7.106-0.842
		c2.664,1.263,7.987,3.814,11.985,8.891c3.992,5.079,3.957,12.444,7.944,12.022c3.999-0.42,4.035-3.554,5.812-7.368
		c1.77-3.813-4.052-7.624-7.17-10.586c-3.105-2.969-7.035-2.539-4.372-5.077c2.661-2.538,0.438-6.353,1.778-9.311
		c1.324-2.972,6.221-1.276,11.091-3.392c4.885-2.118,5.325-9.313,5.325-16.93c0-7.628-4.001-11.008-6.208-13.547
		c-2.221-2.549,2.664-1.274,6.663,1.685c3.988,2.971,10.209,19.055,11.535,25.408c1.337,6.355,0.443,6.355,5.768,11.853
		c5.326,5.509,3.557,4.655,1.778,11.007c-1.778,6.353-6.209,8.05-12.871,9.737c-6.665,1.695-4.432,2.968-8.431,9.32
		c-4,6.355,2.221,6.775,5.767,8.472c3.548,1.685,3.988-5.314,8.433-8.276c4.428-2.971,10.65-4.43,18.195-4.43
		c7.547,0-2.209-9.745-2.652-14.822c-0.451-5.075-0.894-8.456-2.675-12.27c-1.767-3.813,1.781-3.813,7.105-6.352
		c5.326-2.551,4.897-7.628,1.778-7.628c-3.113,0-5.766,2.118-12.871,1.697c-7.105-0.424-5.324-5.923-7.105-8.052
		c-1.775-2.105-3.999-6.76-4.441-10.574c-0.443-3.814-6.66-8.891-11.094-12.704c-4.439-3.814-7.103-6.344-7.103-4.657
		c0,1.697-2.665-0.423-8.885-0.845c-6.208-0.42-7.537,0.845-12.858,0.421c-5.328-0.421,0.442-8.892,2.651-14.822
		c2.232-5.918,8.441-2.538,13.325-2.538c4.885,0,22.042-20.222,29.136-18.528c7.105,1.696,3.999-4.234,5.339-8.89
		c1.324-4.656,4.431-2.117,8.43-0.422c3.987,1.688,5.328,2.118,5.328-1.695c0-3.814,3.544-4.656,6.65-1.276
		c1.558,1.696,1.263,4.476,0.581,6.832c-1.289,4.438-1.709,9.112-1.03,13.697c0.654,4.428,1.89,9.004,4.236,10.218
		c4.882,2.547,2.906,16.628,8.677,20.442c5.753,3.812,4.046-6.39,4.046-13.584c0-7.206-2.743-19.392-6.734-26.164
		c-4.001-6.783-1.335-3.814,6.201-3.814c7.548,0,7.998-2.539,9.776-4.656c1.771-2.126,3.106-2.538,9.755-2.538
		c6.651,0,2.675-2.551-0.44-5.931c-3.103-3.38-9.314-2.538-7.102-4.668c2.219-2.106,14.193,1.288,19.984,3.393
		C1055.198,177.633,1053.871,175.95,1052.985,170.86z M639.001,311.746c-2.66,5.089-3.986,8.469-7.975,7.206
		c-3.999-1.274-17.313-0.854-23.976-2.971s-16.419-5.921-18.197-1.264c-1.771,4.644,4.442,8.458-6.662,4.644
		c-11.095-3.801-23.07-8.457-24.41-11.85c-1.324-3.383,4.441-12.694-3.545-12.694c-7.99,0-19.093-0.434-22.639,2.107
		c-3.559,2.549-17.316,7.204-21.756,5.931c-4.035-1.146-10.197-2.542-3.104-5.501c7.105-2.971,15.545-1.274,16.43-5.509
		c0.883-4.234-6.222-5.077,0.883-8.878c7.093-3.814,4.431-7.207,9.325-9.325c4.884-2.107,11.536-1.695,15.081-2.959
		c3.55-1.275-1.323-2.541,5.78,1.264c7.094,3.813,11.535,11.02,15.08,11.44c3.56,0.409,5.781,2.96,3.56,4.644
		c-2.221,1.696-5.78,2.971-7.104,2.971c-1.326,0-2.221,3.38-0.884,3.814c1.327,0.42,4.429,5.921,6.651,4.234
		c2.22-1.697-0.794-4.461,3.195-5.726c3.988-1.273,8.792-2.743,7.014-5.293c-1.77-2.539-3.547-5.498,0-3.801
		c3.547,1.695,7.728,1.403,3.729-2.411c-3.988-3.801-6.392-4.363-11.275-7.755c-4.885-3.38-10.199-5.076-10.199-7.617
		c0-2.54-3.114-7.194,1.77-5.499c4.884,1.688,21.754,10.587,21.754,13.971c0,3.379,4.442,9.312,0.432,12.27
		c-3.988,2.971,4.011,3.814,5.766,5.501c1.781,1.693,0.908,6.361,5.781,5.507c4.885-0.843,8.441-0.421,5.767-5.085
		c-2.652-4.66-7.095-6.764-2.652-8.461c4.433-1.684,5.327-3.814,6.653,3.381c1.337,7.206-0.454,9.745,10.208,10.166
		c10.65,0.42,17.756-2.538,19.083,0.42C639.899,301.589,641.677,306.669,639.001,311.746z M656.316,279.994
		c-7.093-0.42-17.613,0.019-23.391,0.019c-5.769,0-11.566,1.469-11.566,1.469c-4.873-0.843-14.309-1.065-8.543-8.271
		c5.779-7.186,2.222-16.498,9.338-13.958c7.094,2.529,7.397,11.56,11.839,5.616c4.434-5.918,9.453-11.968,10.79-7.313
		c1.336,4.655-6.221,8.469,3.105,12.274C657.199,273.642,663.422,280.416,656.316,279.994z M700.021,297.97
		c-6.651,0-15.624-3.588-15.624-6.968c0-3.392-0.727-7.704-0.727-7.704c-2.255-9.515-9.155-10.446-9.155-15.944
		s5.359-9.8,12.465-9.8c7.094,0,16.059,0.094,10.723,6.026c-5.314,5.919-15.596,5.406-8.503,14.717
		C696.305,287.61,706.684,297.97,700.021,297.97z"/>
	<path fill="#C9A063" d="M942.216,357.268c3.496,0.95,4.491-12.847-1.99-10.941C933.738,348.229,938.124,356.152,942.216,357.268z"
		/>
	<path fill="#C9A063" d="M950.247,398.596c2.987,1.904,3.493,5.236,2.987,10.467c-0.493,5.234-5.48,4.764,2.997,8.09
		c8.477,3.33,18.458,9.037,15.96-1.428c-2.494-10.465-0.499-11.893-9.477-19.983c-8.975-8.084-9.476-2.853-10.473-9.511
		c-0.999-6.661-3.495-19.032-6.987-14.274c-3.076,4.2-5.48,5.709-1.99,12.847C946.752,391.939,947.255,396.692,950.247,398.596z"/>
	<path fill="#C9A063" d="M931.295,415.248c-3.02,3.703-8.983,11.893-12.972,14.746c-3.988,2.859-10.976-0.943-10.467,5.712
		c0.498,6.657,0.99,9.517,1.491,14.274c0.498,4.754,1.495,7.613,8.976,7.613c7.486,0,10.976,2.375,13.467,1.428
		c2.493-0.957,1.999-5.238,4.987-10.943c2.997-5.715,7.984-4.283,5.984-8.563c-1.995-4.287-1.995-3.33-1.995-7.617
		c0-4.283,2.498-1.428,1.002-8.563C940.271,416.201,934.784,410.972,931.295,415.248z"/>
	<path fill="#C9A063" d="M1036.535,459.492c-6.485-6.658-17.458-11.414-21.948-10.939c-4.479,0.473-8.479,7.135-10.972,4.754
		c-2.494-2.375-9.975-13.791-13.964-10.465c-3.99,3.331,0.493,7.139-4.491,7.139s-6.486,5.707-7.483-1.902
		c-0.997-7.619-4.987-11.422-5.984-5.715c-0.993,5.715-1.494,9.521-3.987,5.236c-2.496-4.281-3.993-1.427-3.993-5.707
		c0-4.281-9.972-9.045-13.959-4.281c-2.498,2.969-3.496,3.326-4.493,9.988c-0.995,6.662-3.491,17.129,1.995,14.273
		c5.486-2.852,6.485-0.477,8.977-3.809c2.493-3.33,5.485-5.23,9.977-3.33c4.491,1.902,2.491,1.902,10.472,0.953
		c7.984-0.953,11.969-0.953,17.459,2.377c5.487,3.332,16.458,1.428,16.458,4.758s-11.471,5.715,0,9.041
		c11.476,3.331,13.967,10.941,17.461,7.139c3.49-3.808,8.478-9.043,11.968-5.235c3.489,3.808,16.956,14.274,14.466,8.562
		c-2.496-5.707-1.997-10.942,5.987-17.121c7.98-6.186,5.982-9.041,2.489-9.041c-3.486,0-3.486,4.279-11.471,5.23
		C1043.515,462.352,1043.022,466.152,1036.535,459.492z"/>
	<path fill="#C9A063" d="M1040.025,520.867c-4.487-10.945-4.487-19.506-6.98-24.264c-2.494-4.76-0.504-10.467-7.98-10.467
		c-3.039,0-2.992,1.899-5.486,8.084c-2.493,6.184,0.495,17.605-5.986,16.18c-6.485-1.428-9.476-4.282-10.977-10.467
		c-1.494-6.186,1.998-11.897-2.989-11.897s-18.952-3.327-22.442,1.903c-3.497,5.234,0.994,7.141-6.484,7.141
		c-7.483,0-10.478,0-14.468,4.752c-3.989,4.758-9.477,18.082-30.923,19.035c-21.446,0.954-10.476,11.89-10.476,23.784
		c0,11.892-11.475,19.032-6.479,23.313c4.982,4.281-1.501,9.991,8.973,6.661c10.473-3.337,19.948-4.284,36.413-6.661
		c16.458-2.381,23.937-3.331,24.438,4.281c0.496,7.611-1.997,2.38,4.491,3.808c6.485,1.427-0.498,11.417,6.982,12.37
		c7.479,0.948,1.262,7.73,7.746,7.73c6.485,0,4.766,5.033-0.725,5.033c-5.486,0-5.662,13.488,2.313,9.688
		c7.984-3.809,14.104-7.232,14.104-12.936c0-5.711-0.988-6.188,8.48-13.324c9.479-7.135,31.425-24.262,29.926-38.061
		C1050,532.757,1044.52,531.81,1040.025,520.867z"/>
</g>
</svg>
